<svg width="50" height="50" viewBox="0 0 50 50" fill="none" xmlns="http://www.w3.org/2000/svg">
<g id="Icon">
<path id="Vector" d="M10.0172 35.4744C10.1544 34.9598 10.3259 34.4623 10.6776 34.0334C11.5182 33.0299 12.9763 32.7211 14.1171 33.3387C15.3436 33.9991 15.9183 35.3372 15.5237 36.6238C15.1377 37.876 14.0313 38.6823 12.7361 38.648C11.4495 38.6137 10.386 37.7131 10.06 36.3922C10.0429 36.3407 10.0257 36.2892 10 36.2292C10.0172 35.989 10.0172 35.7317 10.0172 35.4744ZM12.8305 37.2499C13.6196 37.2499 14.2371 36.6323 14.2371 35.8432C14.2371 35.0627 13.611 34.428 12.8305 34.428C12.0585 34.428 11.4152 35.0713 11.4152 35.8432C11.4238 36.6152 12.0499 37.2499 12.8305 37.2499Z" fill="#FF8243"/>
<path id="Vector_2" d="M23.998 30.0622C23.998 30.3452 23.998 30.6368 23.998 30.9285C23.998 32.2751 23.998 33.6217 23.998 34.9683C23.998 35.157 24.0409 35.26 24.221 35.3543C25.053 35.7746 25.4904 36.7181 25.2846 37.5844C25.0616 38.5279 24.2467 39.1797 23.2947 39.1712C22.3512 39.1712 21.5363 38.5193 21.3219 37.6015C21.1075 36.6923 21.5449 35.7746 22.3683 35.3286C22.4627 35.2771 22.5913 35.1484 22.5913 35.0541C22.5999 33.4073 22.5999 31.7519 22.5999 30.1051C22.5999 30.0879 22.5913 30.0707 22.5999 30.1136C21.8709 29.8134 21.1847 29.5304 20.4985 29.2473C20.4813 29.1959 20.4642 29.153 20.447 29.1015C20.387 29.1959 20.3527 29.3074 20.2755 29.376C19.0833 30.5768 17.891 31.769 16.6988 32.9613C16.4672 33.1928 16.2185 33.3644 15.8668 33.2615C15.4208 33.1242 15.2321 32.6182 15.4894 32.2236C15.558 32.1207 15.6438 32.0263 15.7382 31.932C16.9132 30.7483 18.0969 29.5733 19.2805 28.3896C19.3577 28.3124 19.4435 28.2524 19.4607 28.2438C19.1948 27.6005 18.886 27.043 18.7488 26.4512C18.6201 25.8937 18.6801 25.2933 18.6373 24.71C18.6287 24.5985 18.5772 24.4441 18.5 24.3755C17.4622 23.5521 16.4072 22.7458 15.3608 21.9224C15.2407 21.8281 15.1463 21.8109 15.0005 21.8795C14.057 22.2912 12.9763 21.9653 12.4617 21.1247C11.9299 20.267 12.0843 19.152 12.8305 18.5173C13.6282 17.8311 14.7346 17.8225 15.5237 18.5344C16.107 19.0576 16.2871 19.7267 16.1499 20.4986C16.1327 20.6015 16.1584 20.7645 16.2271 20.816C17.1705 21.5708 18.1312 22.3084 19.0918 23.046C19.1176 23.0632 19.1433 23.0718 19.1004 23.0546C19.5464 22.5829 19.941 22.1025 20.4042 21.6908C20.9531 21.1934 21.6393 20.9103 22.3683 20.7731C22.5485 20.7388 22.6085 20.6701 22.6085 20.49C22.5999 18.9118 22.5999 17.325 22.6085 15.7468C22.6085 15.5839 22.557 15.5067 22.4026 15.4466C20.6357 14.8033 19.9496 12.9421 20.9102 11.3382C21.442 10.4461 22.2826 9.99154 23.329 10.0001C24.3582 10.0087 25.1816 10.4719 25.7049 11.3639C26.6398 12.9678 25.9536 14.8033 24.1953 15.4638C24.058 15.5153 24.0066 15.5839 24.0066 15.7383C24.0151 17.325 24.0151 18.9204 24.0066 20.5072C24.0066 20.6959 24.0752 20.7473 24.2467 20.7902C26.3138 21.2191 27.8148 22.9345 27.9864 25.0445C28.1494 27.0773 26.9142 29.0158 24.9758 29.762C24.6584 29.882 24.3411 29.9592 23.998 30.0622ZM20.0096 25.3876C19.9839 27.1717 21.4763 28.6641 23.2775 28.6812C25.0701 28.6984 26.5712 27.2231 26.5883 25.4305C26.614 23.6207 25.1302 22.1025 23.3376 22.094C21.502 22.0854 20.0268 23.5349 20.0096 25.3876ZM23.2775 11.3982C22.497 11.4068 21.8794 12.0415 21.888 12.822C21.8966 13.6025 22.5313 14.2287 23.3118 14.2201C24.0838 14.2115 24.7271 13.5597 24.7099 12.7963C24.7013 12.0158 24.058 11.3896 23.2775 11.3982ZM23.3032 36.538C22.943 36.538 22.66 36.8038 22.6685 37.1555C22.6771 37.49 22.943 37.7731 23.2861 37.7731C23.6378 37.7816 23.9208 37.4986 23.9208 37.1469C23.9122 36.8038 23.6549 36.538 23.3032 36.538ZM14.1685 20.6701C14.5116 20.6701 14.7861 20.4043 14.7947 20.0697C14.8032 19.7352 14.5116 19.435 14.1685 19.4265C13.834 19.4265 13.5338 19.7267 13.5424 20.0612C13.551 20.3957 13.834 20.6701 14.1685 20.6701Z" fill="#FF8243"/>
<path id="Vector_3" d="M34.8138 22.9345C33.2184 23.4748 31.6402 24.0152 30.062 24.5556C29.9248 24.5985 29.7876 24.6499 29.6417 24.6842C29.3244 24.7528 28.9985 24.5727 28.8784 24.2811C28.7497 23.9723 28.8526 23.6121 29.1357 23.432C29.2558 23.3548 29.4016 23.3033 29.5388 23.2518C31.0484 22.7372 32.558 22.214 34.0762 21.7079C34.2992 21.6307 34.3678 21.5364 34.3764 21.3048C34.4107 19.7095 35.8602 18.4143 37.4127 18.5858C39.1024 18.766 40.2775 20.2841 39.943 21.9052C39.6942 23.1146 38.9394 23.8866 37.7386 24.1439C36.6236 24.384 35.6801 24.0066 34.951 23.1232C34.9167 23.0631 34.8738 23.0117 34.8138 22.9345ZM35.7744 21.3992C35.7744 22.1797 36.4177 22.8144 37.1897 22.8058C37.9702 22.7972 38.5963 22.154 38.5963 21.382C38.5878 20.6101 37.9445 19.9668 37.1725 19.9754C36.4006 19.9754 35.7744 20.6186 35.7744 21.3992Z" fill="#FF8243"/>
</g>
</svg>
